<?xml version="1.0" encoding="iso-8859-1"?>
<!-- Generator: Adobe Illustrator 19.0.0, SVG Export Plug-In . SVG Version: 6.00 Build 0)  -->
<svg version="1.1" id="Capa_1" xmlns="http://www.w3.org/2000/svg" xmlns:xlink="http://www.w3.org/1999/xlink" x="0px" y="0px"
	 viewBox="0 0 512 512" style="enable-background:new 0 0 512 512;" xml:space="preserve">
<path style="fill:#CED6E0;" d="M443.733,156.8v198.4c0,10.667-8.533,19.2-19.2,19.2h-336c-10.667,0-19.2-8.533-19.2-19.2V156.8
	c0-10.667,8.533-19.2,19.2-19.2h334.933C434.133,137.6,443.733,146.133,443.733,156.8z"/>
<path style="fill:#E8EAE9;" d="M212.267,244.267l-137.6,124.8l0,0c2.133,2.133,4.267,3.2,6.4,4.267c0,0,0,0,1.067,0
	s2.133,1.067,3.2,1.067s2.133,0,4.267,0l0,0h334.933c1.067,0,3.2,0,4.267,0c4.267-1.067,7.467-3.2,9.6-5.333l-138.667-124.8H212.267
	z"/>
<path style="fill:#F3F3F3;" d="M423.467,137.6H88.533c-5.333,0-10.667,2.133-13.867,5.333l153.6,142.933
	c16,14.933,40.533,14.933,56.533,0l152.533-142.933C434.133,139.733,428.8,137.6,423.467,137.6z"/>
<path style="fill:#F3705A;" d="M146.133,107.733V83.2C75.733,83.2,16,133.333,3.2,200.533c-2.133-9.6-3.2-19.2-3.2-29.867
	c0-80,65.067-146.133,146.133-146.133V0l60.8,54.4L146.133,107.733z"/>
<path style="fill:#344A5E;" d="M365.867,404.267V428.8c70.4,0,130.133-50.133,142.933-117.333c2.133,9.6,3.2,19.2,3.2,29.867
	c0,81.067-65.067,146.133-146.133,146.133V512l-60.8-54.4L365.867,404.267z"/>
<g>
</g>
<g>
</g>
<g>
</g>
<g>
</g>
<g>
</g>
<g>
</g>
<g>
</g>
<g>
</g>
<g>
</g>
<g>
</g>
<g>
</g>
<g>
</g>
<g>
</g>
<g>
</g>
<g>
</g>
</svg>
